<?xml version="1.0" encoding="utf-8"?>
<!-- Generator: Adobe Illustrator 24.3.0, SVG Export Plug-In . SVG Version: 6.00 Build 0)  -->
<svg version="1.1" id="Layer_1" xmlns="http://www.w3.org/2000/svg" xmlns:xlink="http://www.w3.org/1999/xlink" x="0px" y="0px"
	 viewBox="0 0 20 20" style="enable-background:new 0 0 20 20;" xml:space="preserve">
<style type="text/css">
	.st0{fill:#4CDEB3;}
</style>
<path class="st0" d="M10,0.2c-5.5,0-9.9,4.4-9.9,9.9s4.5,9.9,9.9,9.9s9.9-4.4,9.9-9.9S15.5,0.2,10,0.2z M15.7,8.4l-6.2,6.2
	c-0.3,0.3-0.6,0.4-1,0.4s-0.7-0.1-1-0.4l-3.2-3.2c-0.3-0.3-0.4-0.6-0.4-1c0-0.4,0.1-0.7,0.4-1C4.6,9.2,4.9,9,5.3,9
	c0.4,0,0.7,0.1,1,0.4l2.2,2.2l5.3-5.2C14,6.1,14.3,6,14.7,6c0.4,0,0.7,0.1,1,0.4C16.3,7,16.3,7.8,15.7,8.4z"/>
</svg>
