<?xml version="1.0" encoding="UTF-8"?>
<svg xmlns="http://www.w3.org/2000/svg" xmlns:v="https://vecta.io/nano" width="125" height="60" fill="none">
  <path d="M0 6a6 6 0 0 1 6-6h113a6 6 0 0 1 6 6v48a6 6 0 0 1-6 6H6a6 6 0 0 1-6-6V6z" fill="#232119"></path>
  <g fill="#fff">
    <path d="M55.882 19.207c.206.064.206.158.206 1.575 0 .894-.043 1.533-.107 1.577-.032.027-.058.061-.076.099a.3.3 0 0 0-.029.121c0 .125.169.148.976.125l.968-.031.031-.314c.041-.304.031-.304-.168-.125-.146.136-.335.177-.662.156l-.462-.031V20.9l.358-.023a.63.63 0 0 1 .516.179c.22.253.315.179.251-.206-.041-.294-.074-.314-.588-.345l-.536-.033-.031-.411c-.064-.703.031-.872.411-.822a1.06 1.06 0 0 1 .526.206c.169.136.189.136.253-.012a.82.82 0 0 0 .021-.356c-.033-.169-.158-.189-1.061-.189-.736-.01-1.028.031-1.028.115s.117.175.232.206zm-8.485.253c.02-.064.273-.127.557-.138l.524-.01v1.702c0 1.429.021 1.712.158 1.743.284.053.629-.053.629-.206.002-.04-.007-.081-.025-.117s-.046-.067-.079-.089c-.062-.043-.105-.682-.105-1.577v-1.511l.483.031c.314.021.536.095.617.206.125.168.146.168.206-.031.036-.142.036-.29 0-.432-.064-.206-.148-.206-1.523-.177-1.324.021-1.48.041-1.618.23a.75.75 0 0 0-.169.347c.008.173.292.183.345.027zm3.813-.306c.125.107.156.411.156 1.618 0 .956-.041 1.534-.115 1.608a.22.22 0 0 0-.06.108c-.01.041-.007.084.007.124.095.146.767.146.851 0 .033-.064 0-.138-.095-.169s-.146-.232-.136-.841c0-.43.053-.777.105-.777h1.975v.726c0 .411-.043.767-.107.798-.032.027-.058.061-.076.099a.3.3 0 0 0-.029.121c0 .158.557.206.884.084.156-.064.156-.074 0-.189s-.169-.358-.158-1.692c0-.861.064-1.616.125-1.69.127-.148-.23-.253-.672-.206-.399.051-.452.115-.189.263.179.093.222.206.222.683v.578h-.6l-.976.031c-.199.01-.399-.031-.44-.095-.117-.158-.095-1.081.02-1.155.206-.125.105-.23-.284-.294-.463-.047-.652.068-.409.267zm9.032 21.217a.7.7 0 0 1-.399-.138c-.148-.115-.641-1.04-.851-1.595-.041-.117-.206-.483-.345-.822-.108-.224-.2-.455-.273-.693 0-.094-.822-2.175-1.166-2.921-.117-.251-.253-.45-.306-.45-.115 0-.639 1.081-.777 1.585-.041.138-.189.516-.325.822l-.483 1.207-.715 1.755a3.87 3.87 0 0 0-.22.598c0 .206-.452.641-.682.641s-.411.125-.304.23a5.72 5.72 0 0 0 1.102.064c.841 0 1.04-.023 1.04-.138-.008-.047-.033-.09-.072-.119a.19.19 0 0 0-.134-.037c-.095.004-.188-.026-.263-.084-.031-.053.074-.462.232-.915.261-.767.314-.822.639-.923a4.62 4.62 0 0 1 .999-.053c.629.031.639.041.822.432.401.808.6 1.47.483 1.605-.156.206-.031.222 1.145.243.884.01 1.073-.021 1.073-.148.014-.084-.082-.146-.22-.146zm-2.898-2.584c-.105.115-1.385.062-1.385-.043a9.87 9.87 0 0 1 .565-1.659l.127-.243.125.243c.22.43.631 1.648.567 1.702h0zm-4.496 1.585c-.263.567-.617.756-1.408.777-.849.023-1.26-.095-1.85-.534-1.564-1.188-1.544-4.232.043-4.989.534-.263 2.037-.253 2.52 0 .368.206.757.734.757 1.05 0 .094.051.179.105.179.125 0 .125.031.158-.968l.02-.822h-.284a1.95 1.95 0 0 1-.588-.105 5.71 5.71 0 0 0-2.111-.084c-2.134.335-3.466 2.037-3.083 3.959.119.718.465 1.378.987 1.885s1.193.833 1.913.931a1.08 1.08 0 0 1 .368.105c.062.062 1.973-.043 2.261-.127.314-.094.483-.411.547-1.061s-.093-.752-.356-.195zm23.251-5.387a1.74 1.74 0 0 1-.933 0c-.378-.074-.6-.074-.684 0-.177.148-.072.294.222.294a.52.52 0 0 1 .199.037.5.5 0 0 1 .169.111c.072.084.136.851.177 2.017l.107 1.953c.033.053 0 .158-.043.253-.074.136-.156.084-.493-.294-.915-1.028-4.347-4.495-4.452-4.495-.148 0-.127-.206-.168 2.73l-.243 3.645a.5.5 0 0 1-.335.148c-.148.02-.253.094-.232.146.033.169 2.354.138 2.417-.02.021-.095-.074-.136-.273-.136-.557 0-.6-.158-.631-2.333-.031-.657-.027-1.316.01-1.973.033 0 1.104 1.061 2.395 2.362l2.415 2.364c.041 0 .107-.158.138-.337.031-.187.084-1.616.115-3.182l.115-2.909c.021-.031.189-.084.368-.084s.304-.051.304-.146c-.008-.222-.251-.273-.662-.148zm-12.81 2.908c-1.166-.966-1.439-1.301-1.439-1.679 0-.432.062-.526.473-.767.273-.158.389-.169.756-.074.45.125.872.557.872.892 0 .094.041.169.095.169.125 0 .261-1.26.156-1.365-.179-.169-1.26-.304-1.628-.206-.757.189-.892.261-1.25.598s-.366.368-.366 1.114c0 .923.146 1.166 1.344 2.193.943.81 1.028.925 1.028 1.472a.77.77 0 0 1-.325.734c-.165.142-.366.236-.58.272s-.435.013-.637-.067a1.2 1.2 0 0 1-.511-.387 1.19 1.19 0 0 1-.237-.595c-.041-.23-.125-.389-.187-.366-.253.082-.232 1.733.02 1.764a1.05 1.05 0 0 1 .524.146c.127.127 1.566-.031 1.955-.206.629-.304.944-.822.987-1.659.041-.617.01-.756-.22-1.114-.237-.325-.517-.617-.83-.87h0zm18.685-2.939a1.62 1.62 0 0 1-.452-.095c-.358-.138-1.743.136-2.3.463a3.79 3.79 0 0 0-1.683 2.594c-.072.524.148 1.554.473 2.183a3.42 3.42 0 0 0 1.996 1.544c.631.189 1.932.127 2.467-.105.822-.378.935-.44 1.291-.798.452-.462.695-.935.915-1.786.508-1.953-.867-3.99-2.705-4zm1.334 4.631c-.111.579-.438 1.093-.915 1.439-.206.169-1.092.253-1.492.148-.808-.206-1.25-.59-1.69-1.482-.263-.514-.294-.693-.294-1.644s.031-1.124.251-1.564c.715-1.387 2.313-1.544 3.494-.337.697.699.97 2.191.645 3.441z"></path>
    <path d="M68.082 40.361a1.5 1.5 0 0 1-.411-.107c-.095-.095-.095-5.776 0-5.871a.86.86 0 0 1 .335-.125c.125-.01.253-.074.263-.138.031-.136-2.52-.177-2.604-.051-.033.051.051.125.206.168.142.033.273.104.378.206.169.206.156 5.587-.01 5.786a.52.52 0 0 1-.368.148c-.168 0-.232.041-.189.156s.314.148 1.439.127c.861-.012 1.375-.064 1.365-.127-.008-.058-.187-.142-.403-.173zm-9.889-8.917a1.33 1.33 0 0 1-.493-.084c-.189-.128-.261-1.094-.251-3.33l.105-2.594c0-.031.156-.095.325-.136s.315-.117.315-.169c0-.115-2.551-.127-2.672-.02-.043.041.084.125.271.205.296.095.358.179.432.578.105.567.041 5.25-.074 5.439a.32.32 0 0 1-.152.082c-.057.013-.117.01-.173-.008-.263-.064-.473.115-.284.242s2.752.051 2.878-.074.047-.132-.226-.132zm-3.905 0a2.47 2.47 0 0 1-.473-.064l-.243-.064v-2.983c0-2.878.01-2.983.206-2.983.294 0 .547-.115.473-.22-.031-.053-.672-.095-1.416-.095-1.05 0-1.367.031-1.334.136a.66.66 0 0 0 .411.179l.358.054.031 1.207.031 1.219-1.595-.021c-1.209-.023-1.618-.053-1.681-.169-.105-.169-.115-.767-.031-1.644.062-.588.094-.641.335-.672a.47.47 0 0 0 .317-.158c.031-.105-.263-.136-1.233-.136s-1.272.031-1.233.136a.4.4 0 0 0 .12.108c.047.028.099.044.153.051.125.02.23.095.241.158.011.131.032.261.064.389.062.356.041 4.578-.033 5.071-.051.337-.105.411-.366.463-.306.053-.411.189-.206.263.093.031 2.331.021 2.709 0 .261-.02.01-.22-.284-.22-.504 0-.588-.222-.617-1.607-.021-.693.012-1.314.064-1.377.095-.105 3.098-.156 3.203-.051s.095 2.341.023 2.541l-.117.337a.27.27 0 0 1-.107.118.28.28 0 0 1-.154.04c-.115 0-.206.051-.206.105s.031.105.082.105l1.377.031c.966.01 1.311 0 1.344-.105s-.056-.14-.212-.14zm8.039.136c.072-.168-.107-.273-.337-.206a.48.48 0 0 1-.399-.084c-.189-.136-.206-.314-.232-2.847-.041-3.182-.021-3.256.894-2.814.534.253.767.693.767 1.459 0 .617-.021.662-.411 1.028a1.45 1.45 0 0 1-.629.378c-.115 0-.206.074-.206.158 0 .156.524.23.672.082a.37.37 0 0 1 .206-.095c.074-.021.24-.051.378-.082.892-.206 1.48-1.901.956-2.763-.389-.652-.822-.767-2.837-.767-1.092 0-1.786.041-1.786.105s.128.125.296.169a2.79 2.79 0 0 1 .411.105c.095.02.125.703.125 2.909 0 2.426-.02 2.909-.156 3.014a.35.35 0 0 1-.317.074c-.179-.074-.335.128-.179.232a11.16 11.16 0 0 0 1.439.072c.962.008 1.318-.023 1.344-.128zm10.855.125c.851.181 1.736.131 2.561-.146a3.53 3.53 0 0 0 1.891-1.87c.347-.851.337-2.278 0-2.993a3.61 3.61 0 0 0-1.544-1.503c-.946-.389-2.752-.335-3.655.127-.631.314-1.26 1.112-1.523 1.922-.641 1.942.368 3.918 2.269 4.463zm-.306-5.901a1.36 1.36 0 0 0 .358-.222c.243-.206 1.293-.187 1.797.023.641.261 1.334 1.196 1.503 2.006.115.617.051 1.922-.117 2.331-.411.966-1.071 1.396-2.056 1.314-.662-.053-.851-.127-1.324-.567-.44-.411-.578-.631-.882-1.408-.401-1.1.039-3.235.722-3.476h0zm14.389-.473c.506.051.578.483.516 3.172-.053 2.51-.115 2.878-.493 2.878-.294 0-.411.23-.148.284.158.02 2.111.02 2.543 0 .251-.021.031-.206-.337-.263-.43-.084-.483-.22-.483-1.439 0-.987.041-1.061.567-.966.189.043.442.253.703.598 1.597 2.056 1.566 2.027 2.627 2.111a2.7 2.7 0 0 0 .923-.031c.039-.022.068-.059.079-.102s.006-.089-.016-.128a.17.17 0 0 0-.102-.079c-.043-.012-.089-.006-.128.016-.263.105-.715-.205-1.357-.956l-1.406-1.764a2.35 2.35 0 0 1 .356-.506c.557-.693.641-.966.6-1.932-.01-.304-.617-.976-.851-.976-.049.005-.099-.002-.144-.02s-.087-.047-.119-.085c-.105-.169-3.76-.138-3.7.031a.58.58 0 0 0 .37.158h0zm1.587 1.585a6.84 6.84 0 0 1 .105-1.385c.136-.136.956.095 1.209.335.882.822.43 2.689-.631 2.617a1.24 1.24 0 0 1-.537-.138h0c-.125-.095-.154-.37-.154-1.429h.008zm-23.39-1.585c.284.074.358.146.432.504.105.483.041 5.157-.084 5.431-.053.115-.169.166-.347.156-.146-.02-.284.023-.304.095-.053.158.253.189 1.702.189.956 0 1.155-.031 1.155-.156 0-.105-.105-.158-.337-.158a.88.88 0 0 1-.411-.084c-.125-.125-.206-2.341-.138-4.191l.053-1.605.263-.033c.356-.041.956.368 1.186.822s.179 1.385-.105 1.702c-.206.23-.767.545-.767.44 0-.041-.074 0-.158.064-.251.206-.189.347.138.284 1.513-.294 2.121-.872 2.152-2.056.021-.734-.179-1.081-.822-1.439-.378-.22-.547-.241-2.165-.241-1.737-.016-2.199.078-1.443.277zm33.454 0c-.662-.327-2.185-.567-2.5-.399-.127.065-.268.101-.411.105a1.05 1.05 0 0 0-.411.095l-.567.273c-1.145.493-1.912 2.162-1.644 3.56.304 1.585 1.155 2.446 2.773 2.783l.736.156c.115.033.345 0 .892-.166 1.314-.358 2.142-1.124 2.553-2.323.573-1.71-.017-3.402-1.421-4.084zm-.263 5.24c-.335.473-.578.58-1.385.631-.537.031-.767 0-1.028-.146-1.186-.684-1.644-1.644-1.575-3.289.031-.892.125-1.186.534-1.7s.683-.617 1.449-.617c1.124 0 1.681.368 2.239 1.472.261.514.294.693.294 1.585.016 1.077-.099 1.499-.52 2.064h-.008zm16.267-.282c-.064 0-.117.072-.117.167a.95.95 0 0 1-.206.432c-.115.146-.205.241-.205.206s-.054-.043-.115 0c-.206.125-.977.146-1.271.031-.347-.136-.4-.335-.4-1.48 0-1.233.012-1.233.705-1.233.661 0 .976.136.976.411 0 .206.169.368.24.243.06-.234.091-.474.095-.715.033-.588.023-.629-.177-.578-.331.044-.665.062-.999.053h-.787l-.031-.892c-.043-1.324-.033-1.367.662-1.367s1.061.138 1.155.411c.031.125.126.22.206.22s.125-.179.125-.578c0-.315-.041-.578-.084-.578-3.939-.021-4.674.041-3.655.314l.411.115v2.806c-.01 2.94-.051 3.233-.483 3.149-.042-.012-.087-.01-.127.008s-.073.048-.093.087c-.02.064.043.138.148.158.389.074 3.906.031 3.98-.053.131-.14.183-1.336.047-1.336zm-5.2 1.081a.74.74 0 0 1-.43-.158c-.136-.146-.358-1.112-.432-1.817a33.43 33.43 0 0 0-.205-1.47l-.272-1.87c-.094-.798-.232-1.233-.39-1.233-.093 0-.765 1.355-2.099 4.189-.253.537-.442.822-.495.756-.105-.179-.617-1.207-1.554-3.172-.788-1.628-.977-1.912-1.112-1.679-.137.564-.243 1.135-.317 1.71l-.325 2.08-.205 1.314c-.179 1.27-.206 1.311-.537 1.386-.283.053-.368.138-.263.253.084.074 2.056.031 2.134-.043.105-.115-.179-.284-.463-.284s-.304-.206-.137-1.143l.222-1.556c.063-.528.156-.976.189-.966s.503.904 1.04 1.996c.555 1.124 1.038 1.986 1.122 1.986s.378-.483.662-1.071l1.388-3.015c-.003-.028.006-.055.023-.077s.043-.035.071-.038c.041 0 .136.347.206.767l.355 2.942.013.493.822.021 1.06.021c.36.016.296-.288-.071-.319zm-27.748.44l.851-.105c1.659-.189 2.658-1.028 3.057-2.594.378-1.439-.206-2.962-1.365-3.581-.841-.442-1.178-.493-3.495-.493-2.027 0-2.561.062-2.068.251.115.038.235.059.356.064.051-.001.102.009.149.029a.37.37 0 0 1 .125.086c.084.148.074 5.63 0 5.776a.46.46 0 0 1-.314.095c-.232 0-.442.169-.337.273.436.054.874.079 1.314.074a7.48 7.48 0 0 1 1.355.105c.019.043.195.053.374.02zm-1.186-4.01c.01-2.553 0-2.522 1.618-2.154.392.081.771.219 1.122.411.989.652 1.462 2.175 1.094 3.529-.315 1.219-1.388 1.838-2.878 1.659a1.83 1.83 0 0 1-.672-.187c-.21-.224-.294-1.19-.284-3.258h0z"></path>
  </g>
  <g fill="#ad890d">
    <path d="M10.294 47.947c.313.445.7.832 1.145 1.145a2.39 2.39 0 0 0 .592.056c.411 0 .487-.025.929-.352.504-.384.711-.697.976-1.466.296-.882.329-1.112.368-2.578.039-1.233.025-1.546-.08-1.85-.068-.183-.111-.375-.128-.569 0-.432-.617-1.801-.945-2.136a1.31 1.31 0 0 0-.777-.411c-.206 0-.999.68-.999.865s.238.183.487-.016c.537-.456.849-.185 1.272 1.089a4.34 4.34 0 0 1 .265 1.087.57.57 0 0 0 .056.337c.16.304.113 2.185-.08 3.009-.224.929-.288 1.106-.648 1.644-.384.584-.497.664-.777.6-.489-.105-.808-.52-1.145-1.496a6.84 6.84 0 0 1-.312-1.122c-.02-.23-.06-.457-.119-.68-.144-.545-.105-1.12.136-2.105.183-.777.288-1.009.617-1.361l.232-.249.28.312c.52.576.689 1.073.752 2.169.041.73.08.97.169.97s.152-.376.113-1.361c-.033-.945-.384-1.922-.802-2.251-.232-.183-.822-.191-1.112-.017-.216.138-.578.882-.578 1.194a.76.76 0 0 1-.08.343c-.119.232-.144 2.826-.014 2.865.064.025.095.206.095.498a1.4 1.4 0 0 0 .072.536c.13.127.13.376.017.719a.56.56 0 0 0 .025.578h0zm21.816-9.829c-.36-.191-.6-.206-.841-.064-.548.334-1.072.706-1.568 1.112-.497.393-1.028.617-1.41.617-.201.029-.399.075-.592.136-.465.144-.465.144-.465.465.006.214.036.426.088.633.136.504 1.089 1.408 1.416 1.344.01-.004.021-.006.031-.005s.021.004.031.009a.07.07 0 0 1 .035.052c0 .049.136.152.304.241a1.82 1.82 0 0 1 .777 1.001l.08.393a2.94 2.94 0 0 0 .561.719 3.58 3.58 0 0 1 .52.617c0 .13.689.537 1.311.777.793.296.865.376.849.865a4.54 4.54 0 0 0 0 .495c.025.257.985.456 1.186.257.103-.105-.072-.656-.265-.849a6.3 6.3 0 0 1-.319-.456c-.206-.329-.312-.411-1.009-.697a3.13 3.13 0 0 1-.785-.401c0-.039-.055-.072-.119-.072-.144 0-.68-.52-.946-.927-.28-.504-.436-1.068-.456-1.644a1.38 1.38 0 0 0-.072-.473c-.065-.179-.101-.368-.105-.559a.75.75 0 0 0-.041-.315c-.036-.101-.091-.193-.165-.271-.257-.241-.232-.487.088-.822.232-.257.36-.304.993-.44 1.009-.206 1.328-.473 1.314-1.065-.017-.37-.107-.506-.428-.672zm.411-9.661c-.185.168-.206.249-.088.393.144.177.8 1.176.8 1.217a2.57 2.57 0 0 0 .185.343c.169.257.329.666.617 1.585a1.77 1.77 0 0 1 .08.481 1.91 1.91 0 0 0 .08.506 8.91 8.91 0 0 1 .088 1.281c0 .703.047 1.079.127 1.233a.72.72 0 0 1 .08.384c-.064.224.335.368.479.177a.57.57 0 0 0 .105-.224c0-.136.384-.569.448-.504.033.031.105.014.16-.033s.224-.025.569.16c.303.151.618.275.944.368.713.177 2.378.345 2.635.257.206-.064.512.056.872.335.736.6 1.178 1.194 1.178 1.626 0 .152.072.257.279.384s.28.224.28.411c0 .282.206.68.393.73.329.088.896.047.937-.064.097-.232-.152-.697-.633-1.186-.719-.736-1.457-1.737-1.568-2.16s-.553-.874-.849-.921a.4.4 0 0 1-.206-.088 2.35 2.35 0 0 0-.666-.047c-.448.014-.664-.016-.744-.097s-.111-.08-.111-.033-.066.056-.206 0c-.263-.119-.255-.183.041-.304a1.47 1.47 0 0 0 .448-.376 1.13 1.13 0 0 1 .411-.352c.13-.047.185-.121.152-.193s0-.111.041-.095c.103.023.465-.865.537-1.346l.055-.399.337-.025c.288-.025.376.017.639.257.465.411.769 1.007.697 1.369-.028.086-.03.177-.006.264s.074.164.142.223c.313.337 1.065.216.97-.16-.075-.202-.166-.397-.273-.584s-.186-.4-.224-.617a.27.27 0 0 0-.191-.288 1.81 1.81 0 0 1-.536-.536c-.384-.52-.769-.904-.822-.841-.025.025-.041 0-.041-.047 0-.13-.553-.354-.719-.298-.224.074-.442.37-.674.913-.296.705-.617 1.114-.88 1.089-.296-.031-.312-.056-.641-.785-.296-.672-.487-.863-.88-.904-.321-.023-.896-.985-1.12-1.85-.152-.586-.177-1.947-.033-2.09s.425-.119.697.016c.16.088.271.263.44.705.434 1.128.411 1.104.721 1.104.352 0 .528-.232.528-.689a5.85 5.85 0 0 1 .263-1.472 3.42 3.42 0 0 0-.064-1.883 2.34 2.34 0 0 1-.16-.68c.025-.28-.08-.384-.393-.384a2.63 2.63 0 0 1-.775-.216 3.22 3.22 0 0 0-.849-.241.6.6 0 0 1-.506-.206l-.166-.191-.13.191a1.98 1.98 0 0 1-.921.592 1.52 1.52 0 0 0-.512.36c-.169.177-.352.29-.432.273-.113-.017-.169.047-.224.249a2.69 2.69 0 0 1-.329.617 1.44 1.44 0 0 0-.249.456c0 .055-.023.103-.056.103s-.072.121-.08.265a.69.69 0 0 1-.232.44c-.183.16-.205.216-.127.376.047.097.064.205.039.232a2.92 2.92 0 0 0-.031.672c.01.535-.014.639-.148.771zm-7.825-14.198c-.224-.265-.935-.569-1.344-.569-.304 0-.968.206-1.488.481l-.354.175-.312-.343c-1.737-1.947-3.634-3.443-4.859-3.836a3.99 3.99 0 0 0-1.801-.111c-1.568.393-3.289 4.111-2.779 5.988.113.401.273.617.378.52a1.89 1.89 0 0 0-.088-.473c-.144-.559-.144-.904.014-1.665.137-.732.383-1.438.73-2.097.561-1.178.985-1.644 1.809-1.93a1.99 1.99 0 0 1 1.513.016 6.94 6.94 0 0 1 1.833 1.001.91.91 0 0 0 .265.191c.216 0 2.37 2.066 2.81 2.699.16.224.103.321-.368.697-.697.559-1.529 1.424-1.427 1.496.064.041.313-.136.666-.465.695-.639 1.344-1.145 1.488-1.145s.481.313.481.411a1.81 1.81 0 0 0 .411.537c.072.072.282.343.481.617.432.6 1.081 1.256 1.394 1.416a1.72 1.72 0 0 0 .617.136c.319 0 .399-.023.576-.232.257-.312.337-.855.224-1.544-.109-.588-.541-1.589-.87-1.971zm0 3.457c-.312-.064-.567-.224-.935-.6-.481-.489-1.266-1.41-1.266-1.488a.8.8 0 0 0-.175-.257 4.84 4.84 0 0 1-.376-.481l-.193-.271.185-.121a3.04 3.04 0 0 1 1.4-.487c.793 0 1.274.448 1.714 1.618.483 1.209.304 2.208-.339 2.088h-.014zm-5.742 16.42c.656-.376.896-.44 1.729-.473a3.64 3.64 0 0 0 .752-.072 1.01 1.01 0 0 0-.103-.423c-.121-.304-.152-.617-.152-1.466 0-1.32.119-2.08.352-2.312.185-.185.265-.206.473-.097.303.169.622.306.952.411.074.017.139.059.185.119.111.136.448.16.52.039s-.113-.411-.641-.96l-1.375-1.416-.841-.904c.016 0-.033-.058-.097-.13a.41.41 0 0 1-.127-.255c0-.249.36-1.217.456-1.217s.59-1.139.59-1.457a2.77 2.77 0 0 0-.321-.89c-.352-.68-.411-1.048-.169-1.168.152-.088.73-1.178.73-1.394 0-.034.006-.067.02-.097s.034-.058.06-.079c.16-.095.08-.28-.121-.28-.249 0-.559.185-.888.537a1.04 1.04 0 0 1-.337.265c-.144 0-.584.976-.775 1.745a4.8 4.8 0 0 1-.345.96c-.168.241-.185.802-.033 1.336.185.658.088 1.747-.144 1.601a.18.18 0 0 0-.101-.012c-.034.006-.065.021-.091.045-.169.136-.822.047-1.028-.144a.6.6 0 0 0-.255-.168c-.136 0-.738-.664-.913-1.009-.088-.166-.273-.631-.425-1.028-.241-.664-.263-.785-.247-1.585.023-1.593.584-3.203 1.416-4.111.206-.206.263-.434.136-.434-.177 0-.697.586-1.009 1.145-.504.898-.761 1.994-.841 3.659-.047.985-.039 1.377.041 1.634a8.64 8.64 0 0 1 .191.769c.106.543.289 1.069.545 1.56.277.578.498 1.182.658 1.803a12.4 12.4 0 0 1 .352 1.297 1.08 1.08 0 0 0 .08.296 1.97 1.97 0 0 1 .088.471 4.12 4.12 0 0 0 .103.594c.097.255.138.841.13 1.784 0 1.114-.064 1.369-.337 1.439-.241.056-1.297 1.114-1.792 1.786-.465.631-.97 1.737-.993 2.218-.072 1.151-.152 1.416-.569 1.881-.255.28-.249 1.001.016 1.745.133.348.202.717.206 1.089 0 .288.033.528.072.528s.072.352.072.822a5.36 5.36 0 0 0 .033.904 1.09 1.09 0 0 0 .489.097c.376.014.44 0 .479-.144.025-.088 0-.185-.031-.206-.136-.08-.072-.711.127-1.272s.273-1.593.128-1.864c-.054-.147-.086-.3-.095-.456a1.16 1.16 0 0 0-.088-.411c-.053-.25-.064-.507-.033-.761.028-.506.139-1.004.329-1.474l.432-1.281c.376-1.272 1.348-2.553 2.376-3.131z"></path>
    <path d="M31.629 24.45c0-.105-.487-.497-.783-.641a5.64 5.64 0 0 1-1.233-.808c-.129-.123-.286-.213-.456-.265a1.56 1.56 0 0 1-.481-.257c-.088-.078-.191-.127-.241-.103s-.111-.033-.158-.127a1.05 1.05 0 0 0-.384-.29 3.51 3.51 0 0 1-.569-.327.8.8 0 0 0-.617-.206.6.6 0 0 1-.44-.103c-.144-.177-.232-.129-.232.136s0 .249-.265.206-.271-.047-.462.434c-.105.263-.232.479-.29.479-.176.114-.33.258-.456.425a3.31 3.31 0 0 1-.559.537c-.193.095-.206.127-.152.567a1.27 1.27 0 0 1-.177.904c-.191.376-.206.489-.16.822a7.94 7.94 0 0 1 .08.777c.025.52.528 1.57.832 1.745.206.113.232.177.265.65.022.362.129.715.312 1.028a2.84 2.84 0 0 1 .31.945c.033.393.058.44.218.411.04-.009.081-.008.12.003s.075.032.104.061c.023.041 0 .08-.041.08s-.175.193-.288.434c-.08.194-.188.374-.321.536a.75.75 0 0 0-.206.288c-.041.103-.121.183-.193.183s-.119.041-.119.08-.047.08-.113.08c-.045.008-.088.025-.127.049s-.072.057-.098.095c-.119.152-.312.273-.88.553a2.03 2.03 0 0 1-1.028.185c-.229-.019-.46.006-.68.072-.216.061-.44.088-.664.08a3.65 3.65 0 0 0-2.594 1.048c-.561.493-.951 1.152-1.112 1.881-.13.664-.064 1.028.313 1.922.631 1.488.631 2.362-.017 3.554-.232.44-.232.44-.064.561.081.079.131.184.143.297a.49.49 0 0 1-.079.32c-.018.023-.031.05-.036.079s-.004.059.004.087c.064.088-.224.713-.465.993-.368.434-.232.514.241.146a1.76 1.76 0 0 1 .368-.24c.13 0 .072.296-.088.504-.127.16-.136.206-.047.241.096.015.194-.008.273-.064.319-.224.352.152.056.728-.105.206-.169.411-.136.44.136.13.584-.056 1.065-.432.664-.537.833-.713.999-1.028.441-.842.549-1.819.304-2.738-.295-1.227-.67-2.433-1.12-3.612-.039-.113-.025-.136.049-.113.111.033.832 1.186.752 1.186a1.58 1.58 0 0 0 .216.465c.343.579.634 1.187.872 1.817l.168.504a5.58 5.58 0 0 1 .072 1.098c0 .822.016.929.169 1.065.108.1.241.171.384.206.262.079.516.181.761.304.44.206.617.36 1.028.857a3.31 3.31 0 0 1 .528.822c.008.057.029.112.063.16s.077.087.129.114c.193.064.329.319.368.68.049.448.282.631.785.617.313 0 .448-.049.512-.152.072-.121.064-.206-.023-.37l-.206-.399c-.041-.096-.114-.175-.206-.224-.064-.025-.105-.08-.08-.113s-.041-.136-.144-.206-.553-.561-1.009-1.065l-1.176-1.305c-.411-.448-.514-.617-.514-.88a.44.44 0 0 0-.056-.249c-.113-.105 0-.65.271-1.513.206-.617.273-.946.241-1.145-.08-.456.113-.288.456.411.473.976.617 1.626.506 2.163-.058.232 0 .296 1.168 1.48 1.439 1.439 2.13 2.331 2.234 2.878.088.465.329.728.672.728.384 0 .672-.136.672-.304 0-.224-.411-.791-1.028-1.425-.68-.705-1.538-1.801-1.731-2.218-.078-.177-.183-.465-.238-.641-.072-.23-.144-.335-.232-.327-.017.003-.035.002-.052-.002s-.033-.013-.046-.025-.024-.026-.031-.042-.01-.034-.009-.051c.12-.524.287-1.035.497-1.529.268-.448.45-.941.537-1.455.064-.473.271-1.001.411-1.028.068-.016.136-.026.206-.031.088-.016.376-.105.633-.193a2.76 2.76 0 0 1 .68-.169c.384 0 .775-.206 1.568-.808 1.112-.841 1.408-1.001 1.698-.888a2.95 2.95 0 0 0 .448.127c.141.041.274.105.393.191.617.498.631.522.703 1.065.088.602.058.81-.166 1.291-.29.617-.411.783-.514.783-.035.002-.069.013-.1.032s-.056.043-.075.073a2.15 2.15 0 0 1-.465.312c-.497.263-.617.504-.411.905.169.351.337.423.537.24a.36.36 0 0 1 .118-.078c.044-.018.091-.027.139-.027.064.025.241-.169.44-.473a7.1 7.1 0 0 1 .481-.672c.298-.313.568-.65.808-1.009a3.62 3.62 0 0 1 .512-.6c.152-.056.138-.393-.047-1.104-.136-.498-.16-.744-.113-.921.074-.249-.039-1.192-.191-1.562-.206-.528-.257-.761-.312-1.881-.088-1.85-.28-2.763-.752-3.603l-.312-.559c-.248-.442-.568-.84-.946-1.178l-.584-.495c-.087-.084-.187-.153-.296-.206l-.152-.025c-.047 0-.136-.08-.206-.16s-.113-.136-.113-.105-.08 0-.177-.103a.66.66 0 0 0-.224-.16c-.079-.064-.142-.147-.183-.241-.08-.128-.193-.241-.249-.241a.65.65 0 0 1-.288-.241c-.078-.102-.179-.184-.296-.238-.113 0-.506-.489-.506-.617 0-.064.206-.088.617-.08h1.554l.935-.016.29-.28c.343-.354.36-.594.039-.904a1.35 1.35 0 0 1-.236-.329h0z"></path>
  </g>
</svg>
