<?xml version="1.0" encoding="UTF-8"?>
<svg xmlns="http://www.w3.org/2000/svg" width="125" height="60" viewBox="0 0 125 60" fill="none">
  <g clip-path="url(#clip0)">
    <path d="M15.1252 32.824C15.6456 32.8177 16.1619 32.9169 16.6428 33.1158C17.1237 33.3147 17.5593 33.6091 17.9232 33.9811C18.658 34.7185 19.0707 35.7171 19.0707 36.7582C19.0707 37.7992 18.658 38.7979 17.9232 39.5353C17.5478 39.9061 17.1029 40.1991 16.614 40.3977C16.1252 40.5963 15.602 40.6964 15.0743 40.6924C14.037 40.6803 13.046 40.2611 12.3149 39.5252C11.5837 38.7893 11.171 37.7955 11.1656 36.7582C11.158 36.2407 11.2568 35.7272 11.4559 35.2495C11.6549 34.7718 11.95 34.3401 12.3227 33.9811C12.6858 33.608 13.1212 33.3129 13.6023 33.1139C14.0834 32.915 14.6001 32.8163 15.1206 32.824H15.1252ZM8.10615 29.8155C6.26277 31.6632 5.22754 34.1667 5.22754 36.7767C5.22754 39.3867 6.26277 41.8902 8.10615 43.7379C9.00939 44.667 10.093 45.4017 11.2905 45.8968C12.488 46.3918 13.7741 46.6369 15.0697 46.6168C16.366 46.6358 17.6525 46.3894 18.8501 45.8927C20.0476 45.396 21.1309 44.6596 22.0333 43.7287C23.7851 42.0373 24.8136 39.7331 24.9029 37.2997C24.9029 37.1169 24.9029 36.9479 24.9029 36.7813V36.5244C24.8885 35.2709 24.6263 34.0326 24.1314 32.8808C23.6366 31.729 22.9188 30.6864 22.0194 29.8131C21.122 28.8825 20.0422 28.1472 18.8476 27.653C17.653 27.1588 16.3692 26.9165 15.0766 26.9412C13.7773 26.917 12.4868 27.1594 11.2847 27.6534C10.0827 28.1473 8.99459 28.8824 8.08764 29.8131" fill="#70BD42"></path>
    <path d="M34.8837 32.8238C35.4074 32.8156 35.9274 32.9139 36.4119 33.1128C36.8965 33.3117 37.3355 33.6071 37.7025 33.9809C38.4373 34.7183 38.8499 35.7169 38.8499 36.758C38.8499 37.799 38.4373 38.7977 37.7025 39.5351C37.3336 39.9063 36.8942 40.2 36.4101 40.3987C35.926 40.5974 35.407 40.6972 34.8837 40.6922C33.842 40.6867 32.8445 40.2705 32.1078 39.5338C31.3712 38.7972 30.955 37.7997 30.9495 36.758C30.955 35.7163 31.3712 34.7187 32.1078 33.9821C32.8445 33.2455 33.842 32.8292 34.8837 32.8238V32.8238ZM27.897 29.8153C26.9642 30.7165 26.2266 31.7999 25.7301 32.9983C25.2337 34.1966 24.989 35.4842 25.0112 36.7811C24.99 38.0765 25.2352 39.3625 25.7316 40.5591C26.228 41.7558 26.9651 42.8377 27.897 43.7377C28.8048 44.6673 29.8925 45.402 31.0938 45.897C32.295 46.392 33.5846 46.6368 34.8837 46.6166C37.3982 46.609 39.8145 45.6395 41.6369 43.9071C43.4593 42.1746 44.5498 39.8104 44.6845 37.2995C44.6845 37.1167 44.6961 36.9477 44.6961 36.7811V36.5242C44.6833 35.2702 44.4216 34.0313 43.9262 32.8792C43.4308 31.7271 42.7116 30.6849 41.8102 29.8129C40.9154 28.8835 39.8384 28.1487 38.6465 27.6545C37.4547 27.1603 36.1737 26.9174 34.8837 26.941C33.5852 26.916 32.2953 27.1573 31.0937 27.65C29.8921 28.1428 28.8041 28.8765 27.897 29.806" fill="#70BD42"></path>
    <path d="M54.6524 32.8607C55.1756 32.845 55.6965 32.9367 56.1829 33.1301C56.6693 33.3235 57.1109 33.6146 57.4804 33.9854C57.8546 34.3433 58.1506 34.7748 58.3497 35.2528C58.5489 35.7308 58.6469 36.2448 58.6375 36.7625C58.6447 37.2799 58.5457 37.7933 58.3466 38.2709C58.1476 38.7486 57.8528 39.1803 57.4804 39.5396C57.11 39.9113 56.669 40.2052 56.1833 40.4039C55.6976 40.6026 55.1771 40.7022 54.6524 40.6967C53.8757 40.6948 53.1169 40.4631 52.4717 40.0306C51.8265 39.5982 51.3237 38.9845 51.0267 38.2668C50.7298 37.5491 50.6519 36.7595 50.8029 35.9976C50.9539 35.2357 51.327 34.5356 51.8753 33.9854C52.2338 33.6141 52.6662 33.3221 53.1445 33.1284C53.6229 32.9347 54.1366 32.8435 54.6524 32.8607V32.8607ZM47.675 29.8059C46.7428 30.7076 46.0059 31.7912 45.5099 32.9894C45.0139 34.1877 44.7693 35.4751 44.7914 36.7718C44.7702 38.0669 45.0152 39.3527 45.5112 40.5493C46.0072 41.746 46.7437 42.828 47.675 43.7284C48.5816 44.6573 49.6677 45.3921 50.8672 45.8882C52.0666 46.3843 53.3545 46.6313 54.6524 46.6142C57.1695 46.6092 59.5894 45.6415 61.416 43.9096C63.2426 42.1777 64.3375 39.8127 64.4764 37.2994C64.4764 37.1166 64.4879 36.9476 64.4879 36.781V36.5241C64.4216 33.962 63.3577 31.5269 61.5228 29.7374C59.6879 27.9479 57.227 26.9453 54.664 26.9432C53.3653 26.9181 52.0753 27.1592 50.8733 27.6515C49.6713 28.1438 48.5829 28.877 47.675 29.8059Z" fill="#70BD42"></path>
    <path d="M15.0741 19.0772C15.6014 19.0683 16.125 19.1662 16.6134 19.3651C17.1018 19.564 17.5449 19.8597 17.916 20.2344C18.2832 20.5976 18.5747 21.0301 18.7737 21.5068C18.9726 21.9835 19.075 22.4949 19.075 23.0115C19.075 23.528 18.9726 24.0394 18.7737 24.5161C18.5747 24.9928 18.2832 25.4253 17.916 25.7885C17.5428 26.1595 17.099 26.4517 16.6109 26.6481C16.1227 26.8445 15.6002 26.9409 15.0741 26.9318C14.0351 26.9251 13.0409 26.5076 12.3086 25.7705C11.5763 25.0334 11.1653 24.0366 11.1653 22.9976C11.1582 22.4802 11.2572 21.9668 11.4562 21.4892C11.6552 21.0115 11.95 20.5797 12.3225 20.2205C12.6768 19.848 13.1044 19.553 13.5784 19.3538C14.0523 19.1547 14.5624 19.0558 15.0764 19.0634L15.0741 19.0772ZM24.9027 23.5368C24.9027 23.3563 24.9027 23.1873 24.9027 23.0184V22.7615C24.8903 21.5077 24.629 20.2687 24.134 19.1166C23.639 17.9646 22.9202 16.9223 22.0191 16.0502C21.1195 15.1218 20.039 14.3877 18.8445 13.8934C17.6499 13.399 16.3667 13.1548 15.0741 13.1759C13.7776 13.1539 12.4903 13.3987 11.2924 13.8952C10.0945 14.3916 9.01143 15.1291 8.11054 16.0618C7.18141 16.9636 6.44668 18.0459 5.95157 19.2423C5.45646 20.4387 5.21145 21.7238 5.23162 23.0184C5.21145 24.313 5.45646 25.5981 5.95157 26.7945C6.44668 27.9908 7.18141 29.0732 8.11054 29.975C9.01502 30.9004 10.0996 31.6307 11.2973 32.1207C12.4949 32.6106 13.7803 32.85 15.0741 32.8238C16.3671 32.8495 17.6517 32.6099 18.8485 32.1199C20.0454 31.63 21.1291 30.9 22.033 29.975C23.7896 28.2832 24.8188 25.9742 24.9027 23.5368" fill="#70BD42"></path>
    <path d="M34.8836 19.0773C35.4075 19.0681 35.9277 19.166 36.4124 19.365C36.8971 19.564 37.336 19.8598 37.7024 20.2344C38.0676 20.5988 38.3574 21.0316 38.5551 21.5082C38.7529 21.9847 38.8546 22.4956 38.8546 23.0115C38.8546 23.5274 38.7529 24.0383 38.5551 24.5148C38.3574 24.9913 38.0676 25.4242 37.7024 25.7886C37.3334 26.1587 36.8937 26.4507 36.4094 26.6471C35.9251 26.8435 35.4062 26.9404 34.8836 26.9318C33.8402 26.9318 32.8395 26.5173 32.1017 25.7795C31.3639 25.0417 30.9494 24.041 30.9494 22.9976C30.9549 21.9559 31.3711 20.9584 32.1078 20.2217C32.8444 19.4851 33.8419 19.0689 34.8836 19.0634V19.0773ZM44.6844 23.5229C44.6844 23.3424 44.696 23.1735 44.696 23.0045V22.7615C44.6851 21.5072 44.4243 20.2677 43.9288 19.1153C43.4333 17.963 42.713 16.921 41.8101 16.0502C40.9163 15.1185 39.8398 14.3813 38.648 13.8847C37.4561 13.3881 36.1746 13.1429 34.8836 13.1644C33.5828 13.1438 32.2916 13.3904 31.0899 13.8888C29.8881 14.3871 28.8014 15.1267 27.8969 16.0618C26.9648 16.9616 26.2276 18.0435 25.7311 19.2403C25.2347 20.437 24.9896 21.723 25.0111 23.0184C25.0089 24.3124 25.2632 25.5939 25.7594 26.7889C26.2556 27.984 26.9838 29.0688 27.9019 29.9806C28.82 30.8924 29.9097 31.6132 31.1081 32.1012C32.3065 32.5893 33.5897 32.8349 34.8836 32.8239C36.1718 32.8496 37.4515 32.6099 38.6432 32.1198C39.8348 31.6297 40.9128 30.8996 41.8101 29.975C43.5675 28.2833 44.5982 25.9746 44.6844 23.5368" fill="#70BD42"></path>
    <path d="M57.4804 20.2319C57.8465 20.5958 58.137 21.0285 58.3353 21.5051C58.5335 21.9817 58.6356 22.4928 58.6356 23.009C58.6356 23.5252 58.5335 24.0363 58.3353 24.5129C58.137 24.9895 57.8465 25.4222 57.4804 25.7861C57.11 26.1569 56.6687 26.4493 56.1828 26.6457C55.6969 26.8421 55.1764 26.9386 54.6524 26.9293C53.609 26.9293 52.6083 26.5148 51.8705 25.777C51.1327 25.0392 50.7182 24.0385 50.7182 22.9951C50.7099 22.4776 50.8084 21.9639 51.0075 21.4861C51.2066 21.0083 51.502 20.5766 51.8753 20.218C52.2322 19.8426 52.6636 19.5457 53.1418 19.3465C53.62 19.1473 54.1345 19.05 54.6524 19.0609C55.1777 19.0514 55.6994 19.1492 56.1856 19.3481C56.6718 19.5471 57.1124 19.8431 57.4804 20.218V20.2319ZM64.4763 22.9951V22.7614C64.4657 21.507 64.205 20.2674 63.7095 19.115C63.214 17.9626 62.4936 16.9207 61.5905 16.0501C60.6938 15.1176 59.6144 14.3801 58.4199 13.8836C57.2253 13.387 55.9412 13.1422 54.6478 13.1642C53.3493 13.1461 52.061 13.3938 50.8618 13.8921C49.6627 14.3904 48.5782 15.1287 47.6749 16.0616C46.7433 16.9618 46.0066 18.0437 45.5106 19.2404C45.0146 20.4371 44.7698 21.723 44.7914 23.0182C44.7694 24.3136 45.014 25.5995 45.51 26.7963C46.0061 27.9931 46.743 29.075 47.6749 29.9749C48.5813 30.9042 49.6673 31.6393 50.8668 32.1354C52.0664 32.6316 53.3544 32.8783 54.6524 32.8607C55.9455 32.8801 57.2288 32.6341 58.423 32.1377C59.6172 31.6413 60.6968 30.9052 61.5951 29.9749C63.3542 28.2837 64.3873 25.9752 64.4763 23.5366C64.4763 23.3561 64.4879 23.1872 64.4879 23.0182" fill="#70BD42"></path>
    <path d="M68.4972 42.178V42.148C68.4972 39.6023 70.3648 37.6745 72.9081 37.6745C73.7423 37.6567 74.562 37.8934 75.2583 38.3531C75.9545 38.8129 76.4941 39.4738 76.8053 40.248L75.3612 40.8774C74.9238 39.9911 74.1 39.2366 72.9081 39.2366C71.3529 39.2366 70.1912 40.4354 70.1912 42.1202V42.1526C70.1912 43.8651 71.4015 45.0431 72.9498 45.0431C73.4893 45.0488 74.0173 44.8866 74.4605 44.5789C74.9037 44.2712 75.2404 43.8334 75.4237 43.3259L76.884 43.8536C76.6061 44.6826 76.0689 45.4003 75.3516 45.9004C74.6344 46.4006 73.7752 46.6566 72.9012 46.6306C70.3763 46.6306 68.4902 44.726 68.4902 42.1711" fill="#70BD42"></path>
    <path d="M85.1305 42.13C85.143 41.7535 85.0792 41.3783 84.943 41.0271C84.8067 40.6759 84.6009 40.3559 84.3378 40.0863C84.0747 39.8167 83.7597 39.6031 83.412 39.4584C83.0642 39.3137 82.6907 39.2408 82.314 39.2441C80.7889 39.2441 79.5369 40.4429 79.5369 42.13V42.16C79.5225 42.5361 79.5846 42.9113 79.7196 43.2626C79.8546 43.6139 80.0596 43.9342 80.3221 44.2039C80.5847 44.4735 80.8993 44.687 81.2469 44.8314C81.5945 44.9758 81.9678 45.0479 82.3441 45.0436C83.9178 45.0436 85.1212 43.8633 85.1212 42.1577L85.1305 42.13ZM86.9032 37.8509V46.4576H85.2485V44.9325C84.9389 45.4713 84.4878 45.915 83.944 46.2157C83.4002 46.5163 82.7845 46.6624 82.1636 46.6381C79.6411 46.6381 77.8545 44.7335 77.8545 42.1786V42.1485C77.8545 39.6028 79.6272 37.6704 82.1636 37.6704C83.5938 37.6704 84.6236 38.3138 85.2485 39.3621V37.8509H86.9032Z" fill="#70BD42"></path>
    <path d="M88.3585 45.2954L89.0343 44.0781C89.8202 44.8377 90.8581 45.2817 91.9502 45.3255C93.031 45.3255 93.6859 44.8835 93.6859 44.1961C93.6859 43.7333 93.3549 43.3399 92.2973 42.9464C89.8234 42.0208 89.0574 41.3612 89.0574 40.0606C89.0759 38.6072 90.4459 37.6376 92.1677 37.67C93.1516 37.685 94.1028 38.0251 94.8731 38.6373L94.4288 39.968C94.0029 39.6371 92.9546 39.1002 92.1562 39.1002C91.4989 39.0817 90.726 39.3131 90.726 40.0259C90.726 40.5697 91.2883 40.9516 92.3992 41.3866C94.2043 42.1249 95.2665 42.7289 95.285 44.092C95.2665 45.6657 94.0238 46.6955 91.9433 46.714C90.6079 46.7175 89.3221 46.208 88.3516 45.2908" fill="#70BD42"></path>
    <path d="M96.8661 37.8507H98.5208V46.4574H96.8661V37.8507ZM96.7666 35.6267C96.766 35.3683 96.8671 35.1199 97.0481 34.9354C97.2292 34.7509 97.4755 34.6451 97.734 34.6409C97.9913 34.6486 98.2356 34.7555 98.4159 34.9393C98.5962 35.123 98.6985 35.3693 98.7013 35.6267C98.7001 35.8825 98.5977 36.1274 98.4164 36.3078C98.2351 36.4882 97.9897 36.5895 97.734 36.5895C97.6069 36.591 97.4808 36.5672 97.363 36.5194C97.2453 36.4716 97.1382 36.4009 97.0482 36.3112C96.9581 36.2216 96.8868 36.1149 96.8385 35.9973C96.7901 35.8798 96.7657 35.7538 96.7666 35.6267Z" fill="#70BD42"></path>
    <path d="M100.952 37.8507H102.607V39.2809C102.85 38.8118 103.214 38.4166 103.662 38.1365C104.11 37.8564 104.624 37.7018 105.152 37.6887C107.432 37.6887 108.543 39.0009 108.543 41.3799V46.4574H106.888V41.5095C106.888 40.0307 106.152 39.2624 104.891 39.2624C103.678 39.2624 102.76 40.1117 102.598 41.3915V46.4574H100.952V37.8507Z" fill="#70BD42"></path>
    <path d="M117.25 42.1599V42.1275C117.262 41.7508 117.197 41.3757 117.06 41.0246C116.924 40.6735 116.717 40.3537 116.454 40.0844C116.19 39.815 115.875 39.6017 115.527 39.4573C115.179 39.3129 114.805 39.2403 114.429 39.2439C112.904 39.2439 111.652 40.4427 111.652 42.1275V42.1599C111.639 42.5361 111.702 42.9111 111.838 43.2622C111.974 43.6132 112.18 43.9331 112.443 44.2026C112.706 44.472 113.021 44.6854 113.368 44.8299C113.716 44.9744 114.089 45.0471 114.466 45.0434C116.039 45.0434 117.243 43.8631 117.243 42.1575L117.25 42.1599ZM109.981 42.1761V42.1437C109.967 41.5538 110.073 40.9673 110.292 40.4194C110.511 39.8716 110.839 39.3738 111.256 38.9561C111.673 38.5383 112.17 38.2092 112.717 37.9886C113.264 37.768 113.85 37.6605 114.44 37.6725C116.986 37.6725 118.911 39.5517 118.911 42.1066V42.1437C118.927 42.7385 118.823 43.3304 118.607 43.8846C118.39 44.4388 118.065 44.9442 117.65 45.371C117.236 45.7978 116.74 46.1376 116.193 46.3702C115.645 46.6028 115.056 46.7237 114.461 46.7257C113.866 46.7277 113.277 46.6108 112.728 46.3819C112.179 46.1529 111.681 45.8166 111.263 45.3925C110.846 44.9685 110.517 44.4653 110.297 43.9126C110.077 43.3598 109.969 42.7686 109.981 42.1737" fill="#70BD42"></path>
  </g>
  <defs>
    <clipPath id="clip0">
      <rect width="115" height="33.8947" fill="white" transform="translate(5 13)"></rect>
    </clipPath>
  </defs>
</svg>
