<?xml version="1.0" encoding="UTF-8"?>
<svg xmlns="http://www.w3.org/2000/svg" width="125" height="60" viewBox="0 0 125 60" fill="none">
  <path d="M0 6C0 2.68629 2.68629 0 6 0H119C122.314 0 125 2.68629 125 6V54C125 57.3137 122.314 60 119 60H6C2.68629 60 0 57.3137 0 54V6Z" fill="#061D23"></path>
  <g clip-path="url(#clip0)">
    <path d="M48.3021 23.7341H51.9201V23.8039C51.9201 25.3209 51.4726 26.5269 50.6125 27.387C50.2158 27.7701 49.7455 28.0687 49.2299 28.2645C48.7144 28.4604 48.1644 28.5495 47.6134 28.5264C47.056 28.5544 46.4992 28.461 45.9814 28.2528C45.4636 28.0446 44.9971 27.7264 44.6143 27.3204C43.7557 26.4211 43.283 25.2217 43.2972 23.9785C43.2841 22.7547 43.7381 21.5721 44.5667 20.6715C45.459 19.8229 46.6454 19.3531 47.8768 19.3608C48.6798 19.3504 49.4728 19.5402 50.1841 19.913C50.7537 20.2293 51.2391 20.6777 51.5995 21.2205L50.5649 21.979C50.2778 21.5786 49.9143 21.2388 49.4954 20.9793C49.0195 20.7212 48.4848 20.591 47.9435 20.6017C47.0789 20.5953 46.2449 20.9213 45.614 21.5125C44.9957 22.189 44.6625 23.0781 44.6841 23.9943C44.6851 24.8698 45.0031 25.7153 45.5791 26.3746C45.862 26.672 46.2051 26.9056 46.5854 27.0599C46.9658 27.2142 47.3746 27.2857 47.7848 27.2696C48.1492 27.2796 48.5118 27.2143 48.8498 27.0777C49.1878 26.9412 49.494 26.7364 49.7493 26.4762C50.1644 26.0878 50.4219 25.5602 50.4729 24.994H48.2513V23.7341H48.3021Z" fill="white"></path>
    <path d="M54.9892 19.5322C56.0587 19.5322 56.7474 19.6719 57.3345 20.0495C57.6641 20.2823 57.9309 20.5932 58.1109 20.9543C58.2909 21.3154 58.3785 21.7155 58.366 22.1188C58.3882 22.6949 58.2017 23.2596 57.8408 23.7092C57.4799 24.1587 56.9688 24.4629 56.4015 24.5657L59.1658 28.3233H57.5472L55.04 24.7371H54.7988V28.3582H53.4531V19.5322H54.9892ZM54.7829 23.566H55.1955C55.5763 23.566 57.0584 23.5311 57.0584 22.1188C57.0584 20.8779 55.8842 20.7382 55.2304 20.7382H54.7829V23.566Z" fill="white"></path>
    <path d="M69.052 23.9438C69.0672 24.5499 68.9591 25.1528 68.7342 25.7159C68.5093 26.2789 68.1724 26.7904 67.7438 27.2193C67.3152 27.6482 66.8039 27.9855 66.241 28.2108C65.6781 28.436 65.0753 28.5445 64.4692 28.5297C63.8629 28.5445 63.2599 28.436 62.6968 28.2108C62.1337 27.9856 61.6223 27.6483 61.1934 27.2195C60.7646 26.7906 60.4273 26.2792 60.2021 25.7161C59.9769 25.153 59.8684 24.55 59.8832 23.9438C59.8688 23.3377 59.9776 22.7351 60.2031 22.1724C60.4285 21.6097 60.7658 21.0986 61.1946 20.6701C61.6234 20.2416 62.1347 19.9047 62.6976 19.6796C63.2604 19.4546 63.8632 19.3462 64.4692 19.361C65.075 19.3462 65.6776 19.4546 66.2403 19.6797C66.803 19.9047 67.3141 20.2417 67.7426 20.6703C68.1712 21.0988 68.5082 21.6099 68.7333 22.1726C68.9583 22.7353 69.0668 23.3379 69.052 23.9438V23.9438ZM67.7095 23.9438C67.7095 21.9792 66.3638 20.6019 64.4692 20.6019C62.5745 20.6019 61.2288 21.9792 61.2288 23.9438C61.2288 25.9083 62.5713 27.2888 64.4692 27.2888C66.367 27.2888 67.7095 25.8765 67.7095 23.9438Z" fill="white"></path>
    <path d="M74.3609 21.4619C74.2784 21.2434 74.1353 21.053 73.9483 20.9129C73.6846 20.7002 73.354 20.5878 73.0153 20.5955C72.1901 20.5955 71.7743 21.0779 71.7743 21.6651C71.7743 21.938 71.8791 22.3887 72.7265 22.7314L73.6373 23.0996C75.2559 23.7533 75.7065 24.6864 75.7065 25.683C75.7222 26.0585 75.6598 26.4332 75.5233 26.7834C75.3867 27.1336 75.179 27.4516 74.9132 27.7174C74.6474 27.9832 74.3294 28.1909 73.9792 28.3274C73.629 28.464 73.2543 28.5264 72.8788 28.5107C72.4879 28.5339 72.097 28.4651 71.7376 28.3096C71.3782 28.1542 71.0603 27.9165 70.8095 27.6157C70.3678 27.1478 70.1107 26.5355 70.0859 25.8924L71.4316 25.6163C71.4353 26.0252 71.5675 26.4227 71.8093 26.7525C71.945 26.9223 72.119 27.0577 72.317 27.1476C72.5149 27.2375 72.7314 27.2794 72.9486 27.2698C73.1434 27.2763 73.3374 27.2421 73.5183 27.1695C73.6991 27.0968 73.8628 26.9873 73.999 26.8478C74.1351 26.7084 74.2408 26.5421 74.3091 26.3596C74.3774 26.177 74.4069 25.9823 74.3958 25.7877C74.3958 24.8927 73.7071 24.5182 73.1263 24.2707L72.2631 23.9247C71.5395 23.6074 70.4731 23.0297 70.4731 21.6873C70.4731 20.4781 71.403 19.3419 73.0565 19.3419C73.696 19.3068 74.3247 19.5168 74.8147 19.9291C75.0952 20.1845 75.3284 20.4875 75.5034 20.824L74.3609 21.4619Z" fill="white"></path>
    <path d="M77.6367 19.5322L80.0836 25.667L82.5305 19.5322H83.9777L80.0486 28.9073L76.1895 19.5322H77.6367Z" fill="white"></path>
    <path d="M89.8045 20.7731H86.288V23.0138H89.6997V24.2832H86.288V27.0761H89.8045V28.3456H84.9424V19.5195H89.8045V20.7731Z" fill="white"></path>
    <path d="M91.3535 28.3236V18.9136L97.7675 25.6005V19.5324H99.11V28.8726L92.6992 22.1856V28.3585H91.3535V28.3236Z" fill="white"></path>
    <path d="M109.796 23.9438C109.811 24.55 109.703 25.1529 109.478 25.7159C109.253 26.279 108.917 26.7905 108.488 27.2194C108.059 27.6483 107.548 27.9856 106.985 28.2108C106.422 28.4361 105.819 28.5446 105.213 28.5298C104.607 28.5446 104.004 28.4361 103.441 28.2109C102.878 27.9856 102.366 27.6484 101.938 27.2195C101.509 26.7907 101.171 26.2792 100.946 25.7162C100.721 25.1531 100.613 24.5501 100.627 23.9438C100.613 23.3377 100.721 22.7349 100.946 22.172C101.172 21.609 101.509 21.0978 101.938 20.6692C102.367 20.2406 102.878 19.9037 103.441 19.6788C104.004 19.4539 104.607 19.3458 105.213 19.361C105.819 19.3462 106.422 19.4547 106.984 19.6797C107.547 19.9048 108.058 20.2418 108.487 20.6704C108.915 21.0989 109.252 21.61 109.477 22.1727C109.702 22.7354 109.811 23.338 109.796 23.9438V23.9438ZM108.454 23.9438C108.454 21.9793 107.108 20.6019 105.213 20.6019C103.319 20.6019 101.973 21.9793 101.973 23.9438C101.973 25.9083 103.315 27.2889 105.213 27.2889C105.649 27.2923 106.08 27.2072 106.482 27.0389C106.883 26.8707 107.247 26.6227 107.549 26.31C107.852 25.9972 108.089 25.6263 108.244 25.2196C108.4 24.8129 108.471 24.3789 108.454 23.9438V23.9438Z" fill="white"></path>
    <path d="M112.864 19.5322C113.934 19.5322 114.622 19.6719 115.175 20.0495C115.504 20.2823 115.771 20.5932 115.951 20.9543C116.131 21.3154 116.219 21.7155 116.206 22.1188C116.228 22.6949 116.042 23.2596 115.681 23.7092C115.32 24.1587 114.809 24.4629 114.242 24.5657L116.999 28.3233H115.381L112.864 24.7371H112.623V28.3582H111.277V19.5322H112.864ZM112.623 23.566H113.036C113.416 23.566 114.899 23.5311 114.899 22.1188C114.899 20.8779 113.724 20.7382 113.07 20.7382H112.623V23.566Z" fill="white"></path>
    <path d="M66.053 34.9055C65.6566 34.5168 65.126 34.2952 64.5709 34.2866C64.4131 34.2736 64.2543 34.2952 64.1057 34.3501C63.9571 34.4049 63.8223 34.4916 63.7108 34.604C63.5626 34.7504 63.4762 34.948 63.4696 35.1562C63.4637 35.2472 63.4793 35.3382 63.5152 35.422C63.551 35.5059 63.6061 35.5801 63.6759 35.6386C63.8822 35.8449 64.1932 35.9147 64.7803 36.1559L65.4341 36.3971C65.8795 36.5407 66.2902 36.7752 66.6401 37.0858C66.8575 37.3019 67.0278 37.5607 67.1403 37.8458C67.2528 38.1309 67.3051 38.4362 67.2939 38.7425C67.3209 39.541 67.0377 40.319 66.5037 40.9133C65.7102 41.7416 64.5709 41.8083 63.9869 41.8083C63.3792 41.8233 62.7766 41.6939 62.2287 41.4306C61.7523 41.1715 61.3117 40.8514 60.918 40.4785L61.9875 39.0313C62.245 39.2811 62.5208 39.5113 62.8127 39.72C63.1434 39.9281 63.5263 40.0381 63.9171 40.0374C64.2539 40.0391 64.5815 39.9273 64.847 39.72C64.9517 39.6317 65.0348 39.5206 65.0898 39.3951C65.1449 39.2697 65.1704 39.1332 65.1644 38.9964C65.1727 38.8719 65.1477 38.7475 65.0919 38.6359C65.0361 38.5243 64.9516 38.4297 64.847 38.3617C64.5306 38.1458 64.1811 37.9828 63.8124 37.8793L63.1586 37.5619C62.698 37.4296 62.2736 37.194 61.9177 36.8732C61.5594 36.4512 61.3746 35.9091 61.4004 35.3562C61.3891 34.9894 61.4503 34.624 61.5804 34.2809C61.7106 33.9378 61.9072 33.6238 62.1589 33.3568C62.4474 33.0835 62.7889 32.8724 63.1623 32.7365C63.5357 32.6005 63.933 32.5427 64.3297 32.5665C65.2745 32.5558 66.1963 32.8583 66.9512 33.4266L66.053 34.9055Z" fill="white"></path>
    <path d="M71.6732 32.7349C72.4317 32.7349 73.2918 32.8396 73.9805 33.4585C74.2747 33.7274 74.505 34.0589 74.6544 34.4285C74.8038 34.7981 74.8685 35.1965 74.8437 35.5944C74.8656 35.9728 74.8095 36.3517 74.679 36.7076C74.5486 37.0636 74.3465 37.3889 74.0852 37.6636C73.3965 38.3872 72.4666 38.457 71.8446 38.457H70.591V41.5577H68.5566V32.7349H71.6732ZM70.591 36.8035H71.3146C71.5124 36.8227 71.7122 36.802 71.9019 36.7426C72.0916 36.6831 72.2674 36.5862 72.419 36.4576C72.6401 36.2247 72.7629 35.9155 72.7618 35.5944C72.7701 35.4348 72.7437 35.2752 72.6846 35.1268C72.6254 34.9783 72.5348 34.8444 72.419 34.7343C72.0951 34.482 71.6891 34.3588 71.2796 34.3884H70.591V36.8035Z" fill="white"></path>
    <path d="M84.0477 33.8044C84.4922 34.2387 84.8435 34.759 85.0803 35.3336C85.3171 35.9081 85.4344 36.5249 85.4251 37.1463C85.4323 37.7626 85.314 38.374 85.0771 38.9431C84.8403 39.5122 84.4901 40.0271 84.0477 40.4564C83.5945 40.8903 83.0594 41.2297 82.4736 41.4547C81.8879 41.6797 81.2632 41.786 80.636 41.7672C80.0033 41.788 79.3728 41.6828 78.7811 41.4578C78.1894 41.2328 77.6484 40.8924 77.1894 40.4564C76.7473 40.0341 76.3967 39.5255 76.1592 38.9621C75.9217 38.3987 75.8025 37.7925 75.8088 37.1812C75.8108 35.9279 76.3068 34.7259 77.1894 33.8361C77.6481 33.4 78.1892 33.0597 78.781 32.8352C79.3728 32.6107 80.0034 32.5064 80.636 32.5285C81.8958 32.4947 83.1193 32.9522 84.0477 33.8044V33.8044ZM78.7032 35.1818C78.4454 35.4459 78.2427 35.7587 78.107 36.102C77.9713 36.4453 77.9054 36.8121 77.913 37.1812C77.9025 37.9258 78.1866 38.6443 78.7032 39.1806C78.9535 39.4261 79.2519 39.6172 79.5796 39.7417C79.9073 39.8663 80.2573 39.9216 80.6074 39.9042C81.3363 39.9181 82.0416 39.6458 82.572 39.1457C82.8246 38.8865 83.022 38.5787 83.1524 38.2411C83.2827 37.9034 83.3433 37.5429 83.3305 37.1812C83.3343 36.4437 83.064 35.7311 82.572 35.1818C82.0443 34.6996 81.3571 34.4294 80.6424 34.4232C80.2843 34.4094 79.9273 34.4696 79.5936 34.6001C79.26 34.7306 78.9568 34.9286 78.7032 35.1818Z" fill="white"></path>
    <path d="M89.8392 32.7349C90.6559 32.6895 91.4586 32.9612 92.0799 33.4934C92.3355 33.7504 92.535 34.0577 92.6656 34.3959C92.7962 34.7341 92.855 35.0958 92.8384 35.4579C92.8568 35.7888 92.8047 36.1198 92.6854 36.4289C92.5661 36.7381 92.3824 37.0183 92.1465 37.251C91.7932 37.5756 91.3679 37.8116 90.9056 37.9397L93.6286 41.5577H91.1468L88.7697 38.0667V41.5577H86.7354V32.7349H89.8392ZM88.8046 36.7464H89.2521C89.4683 36.7664 89.6864 36.743 89.8935 36.6776C90.1006 36.6122 90.2925 36.5061 90.4581 36.3656C90.5711 36.2532 90.6601 36.119 90.7195 35.9711C90.779 35.8233 90.8077 35.6648 90.804 35.5055C90.8139 35.3332 90.7811 35.161 90.7085 35.0044C90.636 34.8477 90.526 34.7114 90.3883 34.6073C90.0428 34.4111 89.649 34.3165 89.2521 34.3344H88.7697V36.7464H88.8046Z" fill="white"></path>
    <path d="M97.4219 34.4582V41.5577H95.3876V34.4582H93.458V32.7349H99.3166V34.4582H97.4219Z" fill="white"></path>
    <path d="M48.3019 38.5936C49.159 38.5936 49.8539 37.8988 49.8539 37.0417C49.8539 36.1846 49.159 35.4897 48.3019 35.4897C47.4448 35.4897 46.75 36.1846 46.75 37.0417C46.75 37.8988 47.4448 38.5936 48.3019 38.5936Z" fill="white"></path>
    <path d="M112.036 38.5936C112.893 38.5936 113.588 37.8988 113.588 37.0417C113.588 36.1846 112.893 35.4897 112.036 35.4897C111.179 35.4897 110.484 36.1846 110.484 37.0417C110.484 37.8988 111.179 38.5936 112.036 38.5936Z" fill="white"></path>
    <path d="M34.3923 28.8534V28.92V29.085V29.1961V29.304V29.4691V30.3291V30.4212V30.5449V30.7131C34.3421 31.4312 34.236 32.1443 34.075 32.8459C33.335 36.0435 31.4582 38.8633 28.7939 40.7801C26.7309 42.3035 24.2753 43.2053 21.7166 43.3793H21.5484L21.3992 43.4111H21.3072L21.2183 43.3952H21.1263L20.9613 43.4111H20.4852L20.3202 43.3952L20.1932 43.4111H20.0822L19.9362 43.3952H19.8695L19.6982 43.3793C18.4818 43.2896 17.283 43.0366 16.1341 42.6272C14.0179 41.8833 12.1194 40.6259 10.6087 38.9679C8.96418 37.192 7.82554 35.0079 7.31124 32.6427C7.04712 31.4742 6.94039 30.2755 6.99387 29.0787C7.0974 26.3924 8.00636 23.7994 9.60266 21.6364C11.5184 18.9711 14.3386 17.0939 17.5369 16.3554C18.7674 16.0602 20.0338 15.9427 21.2977 16.0063C24.1216 16.1165 26.8386 17.1162 29.0605 18.8626C31.5596 20.7722 33.314 23.4941 34.021 26.5588C34.1792 27.2062 34.2853 27.8653 34.3384 28.5296C34.3384 28.5677 34.3384 28.6058 34.3384 28.6471L34.3923 28.8534ZM8.7045 29.7071C8.70446 32.8797 9.96086 35.9233 12.1989 38.172C14.4369 40.4208 17.4745 41.6917 20.6471 41.7068C22.2253 41.7156 23.7897 41.4128 25.2506 40.8158C26.7116 40.2188 28.0403 39.3393 29.1607 38.2277C30.2811 37.1162 31.171 35.7945 31.7796 34.3383C32.3882 32.8821 32.7034 31.3202 32.7071 29.742C32.7134 28.1653 32.4086 26.6028 31.8102 25.1441C31.2118 23.6853 30.3316 22.3589 29.22 21.2407C28.1083 20.1226 26.787 19.2346 25.3318 18.6278C23.8765 18.021 22.3158 17.7071 20.7391 17.7042C19.1601 17.6996 17.5957 18.0067 16.1356 18.6079C14.6755 19.2091 13.3484 20.0925 12.2303 21.2076C11.1123 22.3226 10.2254 23.6474 9.62034 25.1059C9.0153 26.5644 8.70407 28.128 8.7045 29.7071V29.7071ZM24.1191 16.6378C21.8875 16.0618 19.5463 16.0618 17.3147 16.6378V17.6502C19.5395 17.0234 21.8943 17.0234 24.1191 17.6502V16.6378ZM24.1191 41.7639C21.8943 42.3907 19.5395 42.3907 17.3147 41.7639V42.7763C19.5461 43.3539 21.8877 43.3539 24.1191 42.7763V41.7639ZM32.7674 26.3081C33.08 27.414 33.238 28.5578 33.2371 29.7071C33.2378 30.8553 33.0797 31.998 32.7674 33.1029H33.7766C34.351 30.8744 34.351 28.5366 33.7766 26.3081H32.7674ZM8.64737 33.1061C8.334 32.0003 8.17488 30.8565 8.1745 29.7071C8.17494 28.559 8.33298 27.4164 8.6442 26.3112H7.63497C7.06056 28.5398 7.06056 30.8776 7.63497 33.1061H8.64737Z" fill="white"></path>
    <path d="M20.3037 43.4111L20.4687 43.427H20.3037V43.4111Z" fill="white"></path>
    <path d="M20.9453 43.4111L21.1103 43.3953V43.4111H20.9453Z" fill="white"></path>
    <path d="M19.9199 43.4111L20.0659 43.427H19.9199V43.4111Z" fill="white"></path>
    <path d="M20.3037 43.4111V43.427H20.1768L20.3037 43.4111Z" fill="white"></path>
    <path d="M21.1104 43.4111H21.2024C21.2027 43.4164 21.2027 43.4217 21.2024 43.427L21.1104 43.4111Z" fill="white"></path>
    <path d="M21.1992 43.4111C21.1995 43.4058 21.1995 43.4005 21.1992 43.3953L21.2881 43.4111H21.1992Z" fill="white"></path>
    <path d="M34.3918 28.8533L34.376 28.647L34.3918 28.8533Z" fill="white"></path>
    <path d="M19.6816 43.3762L19.853 43.3921L19.6816 43.3762Z" fill="white"></path>
    <path d="M21.869 23.5344C22.5403 23.5146 23.2086 23.6312 23.8335 23.8771C24.1737 24.0095 24.484 24.2085 24.7461 24.4625C25.0083 24.7165 25.217 25.0203 25.3601 25.3561C25.4843 25.6354 25.5369 25.9413 25.5131 26.2461C25.4893 26.5509 25.3898 26.845 25.2236 27.1016C25.1942 27.169 25.1458 27.2265 25.0845 27.267C25.0231 27.3076 24.9512 27.3295 24.8777 27.3301C24.7854 27.3312 24.6956 27.3002 24.6238 27.2422C24.552 27.1843 24.5026 27.1031 24.4841 27.0127C24.4836 26.9404 24.4954 26.8685 24.519 26.8001C24.5793 26.5811 24.6682 26.3685 24.7063 26.1463C24.7647 25.8548 24.7356 25.5526 24.6226 25.2775C24.5097 25.0025 24.318 24.7671 24.0715 24.6007C23.7041 24.3336 23.279 24.1564 22.8306 24.0834C22.0384 23.9133 21.2158 23.9483 20.4408 24.185C19.8127 24.3914 19.2291 24.7144 18.7207 25.1371C18.1038 25.6078 17.5678 26.1759 17.1339 26.8191C16.6291 27.5829 16.3037 28.4508 16.1818 29.3581C16.0258 30.3764 16.1946 31.418 16.6642 32.335C16.8713 32.7616 17.1782 33.132 17.5588 33.4149C17.9394 33.6977 18.3826 33.8847 18.8508 33.9599C19.5841 34.0789 20.3356 34.009 21.0343 33.7568C21.8012 33.4849 22.505 33.0607 23.1036 32.5096C23.4925 32.1662 23.8445 31.7833 24.1541 31.367C24.2034 31.2949 24.2479 31.2196 24.2874 31.1417C24.2874 31.1131 24.3064 31.0592 24.2874 31.0497C24.2719 31.0425 24.2552 31.0389 24.2382 31.0389C24.2212 31.0389 24.2044 31.0425 24.189 31.0497C23.97 31.1163 23.751 31.1957 23.5289 31.2591C22.7701 31.4888 21.9911 31.645 21.2025 31.7257C20.5429 31.8146 19.8717 31.7605 19.2348 31.567C19.1396 31.5352 19.0476 31.4972 18.9524 31.4591C18.8572 31.421 18.7588 31.3131 18.781 31.1861C18.7931 31.1215 18.8266 31.0629 18.8761 31.0197C18.9257 30.9765 18.9883 30.9513 19.0539 30.9481C19.1472 30.9523 19.2397 30.9661 19.3301 30.9894C19.7586 31.0749 20.1985 31.0878 20.6313 31.0275C22.0415 30.8346 23.3894 30.3234 24.573 29.5326C24.774 29.4005 25.0015 29.3139 25.2395 29.2787C25.3464 29.2522 25.4581 29.2515 25.5654 29.2767C25.6727 29.3018 25.7724 29.3521 25.8565 29.4234C25.9405 29.4947 26.0063 29.585 26.0486 29.6868C26.0908 29.7885 26.1083 29.8989 26.0995 30.0087C26.0977 30.3893 26.0279 30.7666 25.8932 31.1227C25.6213 31.8762 25.1691 32.5517 24.5762 33.0904C23.5521 34.0916 22.2823 34.8053 20.8947 35.1596C20.1549 35.3405 19.3902 35.3973 18.6319 35.3278C17.8693 35.2777 17.1325 35.0317 16.4928 34.6137C15.816 34.1442 15.3288 33.4488 15.1186 32.6524C14.9434 32.049 14.8778 31.4191 14.925 30.7926C15.0293 29.3623 15.5354 27.9905 16.3849 26.835C16.9877 25.9534 17.7523 25.1941 18.6382 24.5976C19.273 24.1602 19.9864 23.8498 20.7392 23.6835C20.8979 23.6518 21.0565 23.6201 21.2152 23.6042C21.4723 23.5598 21.7167 23.5471 21.869 23.5344Z" fill="white"></path>
    <path d="M25.0773 20.1733C25.1757 20.2336 25.2678 20.2876 25.3534 20.3479C25.3803 20.3715 25.3972 20.4044 25.401 20.4399L25.7914 22.7758C25.7914 22.8043 25.7914 22.8329 25.8136 22.8773L26.8165 21.2492L27.1942 21.4809L25.7914 23.7596C25.6835 23.693 25.5819 23.6327 25.474 23.5628C25.4582 23.5628 25.4518 23.5184 25.4455 23.493C25.363 22.9852 25.2804 22.4806 25.1948 21.9728C25.1472 21.6745 25.0995 21.3793 25.0456 21.0588L24.0427 22.6837L23.665 22.452L25.0773 20.1733Z" fill="white"></path>
    <path d="M22.8175 37.0415L23.2523 36.9685L23.7094 39.6027C23.5888 39.6249 23.484 39.6471 23.392 39.6598C23.3532 39.6593 23.3159 39.6446 23.2872 39.6185L21.5734 38.2253L21.3862 38.0761L21.7036 39.9518L21.2656 40.0279L20.8086 37.3938C20.926 37.3716 21.0339 37.3493 21.126 37.3335C21.1546 37.3381 21.1812 37.3514 21.2021 37.3716L23.0492 38.8632L23.1349 38.9298L22.8175 37.0415Z" fill="white"></path>
    <path d="M15.2103 21.0715C15.5435 21.0716 15.8658 21.19 16.1199 21.4057C16.3739 21.6213 16.543 21.9202 16.5972 22.249C16.6328 22.5824 16.5542 22.9181 16.3744 23.2011C16.1945 23.4842 15.924 23.6979 15.607 23.8073C15.3913 23.8876 15.1588 23.9122 14.931 23.8788C14.7032 23.8454 14.4876 23.755 14.3041 23.6161C14.1205 23.4772 13.975 23.2942 13.881 23.084C13.787 22.8739 13.7475 22.6434 13.7663 22.414C13.8086 22.0959 13.9485 21.7987 14.1668 21.5634C14.385 21.3281 14.6709 21.1662 14.9849 21.1001C15.0738 21.0842 15.1659 21.0779 15.2103 21.0715ZM15.2103 21.5317C14.9544 21.5345 14.7092 21.6344 14.5242 21.8112C14.3392 21.9879 14.2282 22.2284 14.2137 22.4838C14.2137 22.7331 14.3114 22.9724 14.4858 23.1504C14.6603 23.3284 14.8976 23.431 15.1468 23.4359C15.405 23.4329 15.6521 23.3307 15.837 23.1505C16.0219 22.9703 16.1304 22.726 16.1402 22.468C16.1362 22.2231 16.038 21.9891 15.866 21.8148C15.694 21.6404 15.4615 21.539 15.2166 21.5317H15.2103Z" fill="white"></path>
    <path d="M27.9467 22.887C28.2424 22.8972 28.5284 22.9949 28.7685 23.1678C29.0086 23.3407 29.192 23.5809 29.2955 23.8581C29.3832 24.0708 29.4157 24.3022 29.3898 24.5308C29.3639 24.7593 29.2805 24.9776 29.1474 25.1653C29.0142 25.3529 28.8358 25.5037 28.6286 25.6037C28.4214 25.7037 28.1922 25.7495 27.9625 25.7369C27.6961 25.7232 27.4389 25.6346 27.2206 25.4814C27.0022 25.3281 26.8314 25.1164 26.728 24.8705C26.6276 24.6744 26.5762 24.4569 26.5782 24.2366C26.5801 24.0163 26.6354 23.7998 26.7393 23.6055C26.8431 23.4112 26.9925 23.245 27.1745 23.121C27.3566 22.9969 27.566 22.9188 27.7848 22.8933C27.8388 22.887 27.8927 22.8901 27.9467 22.887ZM27.0295 24.2866C27.0349 24.5442 27.1384 24.7901 27.3189 24.9741C27.4993 25.1581 27.7431 25.2663 28.0006 25.2767C28.2484 25.2721 28.485 25.1728 28.662 24.9994C28.839 24.8259 28.943 24.5913 28.9527 24.3437C28.9477 24.0885 28.8471 23.8445 28.6708 23.66C28.4944 23.4754 28.2553 23.3638 28.0006 23.3472C27.7482 23.3462 27.5054 23.4439 27.324 23.6194C27.1426 23.7949 27.0369 24.0343 27.0295 24.2866V24.2866Z" fill="white"></path>
    <path d="M26.8572 37.1876C26.868 37.4338 26.8135 37.6786 26.6992 37.8971C26.585 38.1155 26.415 38.2999 26.2066 38.4316C25.9666 38.6126 25.6742 38.7105 25.3735 38.7105C25.0729 38.7105 24.7805 38.6126 24.5405 38.4316C24.3668 38.3003 24.2271 38.1293 24.1332 37.9329C24.0393 37.7365 23.9938 37.5204 24.0007 37.3028C24.0075 37.0852 24.0664 36.8724 24.1725 36.6822C24.2786 36.4921 24.4287 36.3302 24.6103 36.21C24.8055 36.0517 25.0403 35.9499 25.2893 35.9158C25.5384 35.8817 25.792 35.9165 26.0226 36.0165C26.2578 36.1134 26.4609 36.2747 26.6085 36.4818C26.7562 36.689 26.8424 36.9336 26.8572 37.1876ZM25.4545 36.3529C25.198 36.3526 24.9514 36.4516 24.7662 36.6291C24.5811 36.8065 24.4718 37.0487 24.4611 37.305C24.4611 37.5575 24.5614 37.7997 24.74 37.9782C24.9185 38.1568 25.1607 38.2571 25.4132 38.2571C25.6739 38.2513 25.9221 38.1438 26.1047 37.9577C26.2873 37.7715 26.3899 37.5213 26.3907 37.2605C26.3794 37.0185 26.2763 36.7899 26.1024 36.6213C25.9284 36.4526 25.6967 36.3566 25.4545 36.3529V36.3529Z" fill="white"></path>
    <path d="M11.954 27.1586L12.1952 26.2732C12.1961 26.2605 12.1961 26.2478 12.1952 26.2351L13.0775 26.4636C13.106 26.4754 13.1358 26.4839 13.1663 26.489C13.2901 26.489 13.3409 26.5556 13.3536 26.6858C13.4156 27.1445 13.3277 27.6109 13.1028 28.0155C12.9618 28.2604 12.745 28.4528 12.4852 28.5638C12.2253 28.6749 11.9364 28.6985 11.662 28.6312C11.3846 28.5723 11.1325 28.4279 10.9413 28.2185C10.7501 28.009 10.6292 27.7449 10.5956 27.4633C10.5514 27.0732 10.6457 26.68 10.8622 26.3525C10.932 26.2319 11.0177 26.1208 11.1002 26.0034L11.5636 26.124C11.4716 26.2383 11.3795 26.343 11.3002 26.4604C11.1341 26.6837 11.037 26.9507 11.0209 27.2285C11.0132 27.4415 11.08 27.6505 11.2098 27.8196C11.3395 27.9887 11.5241 28.1074 11.7318 28.1552C11.9381 28.2125 12.1581 28.1944 12.3523 28.1043C12.5466 28.0141 12.7024 27.8578 12.7918 27.6633C12.9031 27.4258 12.946 27.162 12.9156 26.9016L12.4903 26.7905L12.3634 27.2697L11.954 27.1586Z" fill="white"></path>
    <path d="M13.4076 24.4101C13.9154 24.2895 14.4327 24.4101 14.9723 24.3435L14.6549 24.81H13.7472C13.6643 24.8111 13.5815 24.8185 13.4997 24.8322C13.4134 24.8395 13.3309 24.8702 13.2609 24.9212C13.191 24.9721 13.1363 25.0412 13.1029 25.121L14.0265 25.7399L13.7694 26.1271L11.5479 24.6323C11.7253 24.3374 11.9304 24.06 12.1604 23.804C12.2556 23.7172 12.3717 23.6567 12.4973 23.6281C12.6229 23.5996 12.7538 23.6041 12.8771 23.6412C13.0005 23.6782 13.1121 23.7466 13.2012 23.8397C13.2903 23.9327 13.3537 24.0473 13.3854 24.1721C13.3978 24.2509 13.4052 24.3304 13.4076 24.4101V24.4101ZM12.1382 24.4736L12.7475 24.883C12.817 24.7711 12.8806 24.6557 12.9379 24.5371C12.971 24.4623 12.9739 24.3777 12.9461 24.3009C12.9183 24.224 12.862 24.1608 12.7888 24.1245C12.7582 24.1004 12.7231 24.0826 12.6856 24.0721C12.6482 24.0616 12.609 24.0586 12.5703 24.0634C12.5317 24.0681 12.4943 24.0804 12.4605 24.0996C12.4266 24.1188 12.3969 24.1445 12.373 24.1753C12.2968 24.2641 12.2302 24.3689 12.1477 24.4736H12.1382Z" fill="white"></path>
    <path d="M29.0156 26.7429L27.9524 27.0602L27.8223 26.6159L30.3898 25.8511C30.5043 26.1799 30.5872 26.5189 30.6373 26.8635C30.6438 26.9818 30.6215 27.1 30.5724 27.2078C30.5232 27.3156 30.4486 27.4099 30.355 27.4826C30.2614 27.5553 30.1516 27.6043 30.0349 27.6252C29.9183 27.6462 29.7983 27.6385 29.6852 27.6029C29.5743 27.5597 29.468 27.5055 29.3678 27.4411C29.1425 27.8949 28.7331 28.2123 28.4316 28.6725C28.3745 28.4789 28.3205 28.3138 28.2761 28.1456C28.2761 28.1266 28.2951 28.0917 28.3142 28.0727C28.5014 27.8442 28.695 27.622 28.8823 27.3903C28.9416 27.314 28.9917 27.2309 29.0314 27.1428C29.0662 27.0812 29.0831 27.0112 29.0803 26.9406C29.0775 26.8699 29.0551 26.8015 29.0156 26.7429ZM29.4345 26.6191C29.4694 26.727 29.5012 26.8222 29.5361 26.9143C29.5522 26.9539 29.5735 26.9913 29.5995 27.0253C29.641 27.0844 29.7012 27.1275 29.7705 27.1477C29.8397 27.1679 29.9137 27.1639 29.9804 27.1364C30.0526 27.1239 30.1172 27.0838 30.1604 27.0246C30.2037 26.9654 30.2222 26.8917 30.2121 26.819C30.1956 26.6769 30.1702 26.5359 30.1359 26.3969L29.4345 26.6191Z" fill="white"></path>
    <path d="M16.5465 36.083L16.8226 36.248L16.464 39.171L16.0514 38.9266L16.1466 38.0951L15.258 37.5619L14.5884 38.0475L14.1758 37.8L16.5465 36.083ZM16.2006 37.6286L16.3053 36.7939L15.6357 37.289L16.2006 37.6286Z" fill="white"></path>
    <path d="M23.7033 19.6943L23.6144 20.1101L22.5449 19.8816L22.3989 20.5544L23.4335 20.7766L23.3447 21.1923L22.31 20.9702L22.1609 21.6652L23.2653 21.9L23.1764 22.3126H23.1225L21.6182 21.9952L22.1767 19.377L23.7033 19.6943Z" fill="white"></path>
    <path d="M14.1344 36.8003C14.0106 36.9082 13.8963 37.0097 13.7789 37.1176C13.7664 37.1229 13.7529 37.1257 13.7392 37.1257C13.7256 37.1257 13.7121 37.1229 13.6996 37.1176C13.429 37.0208 13.1854 36.8609 12.9889 36.6512C12.7924 36.4414 12.6487 36.1879 12.5697 35.9116C12.5259 35.7268 12.5215 35.5349 12.5566 35.3482C12.5918 35.1616 12.6658 34.9844 12.7738 34.8282C12.8818 34.672 13.0215 34.5403 13.1837 34.4415C13.3459 34.3427 13.5271 34.2792 13.7154 34.2549C13.9938 34.2198 14.2765 34.2672 14.5281 34.3913C14.7798 34.5155 14.9894 34.7108 15.1309 34.9532C15.2511 35.166 15.3571 35.3865 15.4483 35.6133L15.0516 35.9592C15.0262 35.8481 15.0071 35.7466 14.9754 35.6418C14.8953 35.3235 14.704 35.0443 14.4359 34.8548C14.3066 34.7726 14.1594 34.7228 14.0068 34.7097C13.8541 34.6965 13.7006 34.7204 13.5592 34.7793C13.4178 34.8382 13.2926 34.9303 13.1944 35.0479C13.0962 35.1654 13.0278 35.305 12.995 35.4546C12.9659 35.632 12.985 35.814 13.0503 35.9815C13.1156 36.149 13.2248 36.2959 13.3663 36.4067C13.5599 36.578 13.79 36.7028 14.0392 36.7717L14.1344 36.8003Z" fill="white"></path>
    <path d="M27.429 36.4291C27.58 36.4204 27.7304 36.4034 27.8796 36.3783C27.9647 36.3605 28.0452 36.3254 28.1162 36.2752C28.1872 36.2249 28.2471 36.1607 28.2922 36.0863C28.3235 36.0401 28.342 35.9864 28.3459 35.9306C28.3498 35.8749 28.339 35.8192 28.3144 35.769C28.2799 35.7186 28.2317 35.6792 28.1754 35.6556C28.1191 35.6319 28.0572 35.625 27.997 35.6357C27.89 35.6488 27.784 35.669 27.6797 35.696C27.4702 35.7468 27.2639 35.8134 27.0449 35.8451C26.9151 35.8676 26.7815 35.8492 26.6626 35.7923C26.5438 35.7354 26.4456 35.643 26.3816 35.5278C26.3106 35.4225 26.2709 35.2993 26.2669 35.1723C26.263 35.0454 26.2951 34.92 26.3594 34.8105C26.4246 34.6771 26.5174 34.5591 26.6318 34.4644C26.7462 34.3698 26.8795 34.3006 27.0227 34.2615C27.0449 34.2615 27.083 34.2615 27.0957 34.2615C27.2258 34.3694 27.3528 34.4805 27.4829 34.5979C27.3674 34.616 27.253 34.6404 27.1402 34.6709C27.039 34.696 26.946 34.7469 26.8703 34.8186C26.7947 34.8904 26.7389 34.9805 26.7085 35.0803C26.6964 35.1134 26.6924 35.1489 26.6967 35.1839C26.7011 35.2189 26.7137 35.2524 26.7336 35.2816C26.7534 35.3107 26.7799 35.3347 26.8109 35.3516C26.8418 35.3685 26.8764 35.3777 26.9116 35.3786C27.019 35.376 27.1256 35.36 27.229 35.331C27.4416 35.2771 27.6479 35.1977 27.8637 35.1596C28.0216 35.1351 28.1832 35.1605 28.326 35.2322C28.4688 35.3039 28.5856 35.4183 28.6603 35.5595C28.7321 35.6933 28.7606 35.846 28.7418 35.9967C28.7231 36.1473 28.658 36.2884 28.5556 36.4005C28.3875 36.6122 28.1506 36.7581 27.886 36.8131C27.8637 36.8131 27.832 36.8131 27.8193 36.8131L27.429 36.4291Z" fill="white"></path>
    <path d="M18.1806 20.2876C18.0473 20.2442 17.9117 20.2082 17.7744 20.1797C17.6947 20.1653 17.6129 20.1678 17.5341 20.1869C17.4554 20.206 17.3816 20.2414 17.3174 20.2907C17.2769 20.3134 17.2438 20.3473 17.2221 20.3884C17.2004 20.4294 17.191 20.4758 17.1951 20.522C17.1991 20.5683 17.2164 20.6123 17.2448 20.649C17.2733 20.6857 17.3117 20.7134 17.3555 20.7287C17.5187 20.7832 17.6851 20.8277 17.8537 20.862C18.0205 20.9028 18.1831 20.9591 18.3393 21.0302C18.4726 21.0983 18.5816 21.2058 18.6515 21.3382C18.7214 21.4705 18.7487 21.6212 18.7297 21.7697C18.7205 21.9093 18.6696 22.0429 18.5836 22.1533C18.4976 22.2636 18.3804 22.3456 18.2473 22.3886C17.9989 22.4939 17.7214 22.5085 17.4634 22.4298C17.4437 22.4229 17.4257 22.412 17.4104 22.3978C17.3951 22.3836 17.3829 22.3664 17.3745 22.3473C17.311 22.1791 17.2539 22.0109 17.1904 21.8173L17.3396 21.9125C17.4394 21.98 17.5532 22.0242 17.6724 22.0418C17.7916 22.0594 17.9132 22.0499 18.0283 22.0141L18.114 21.9792C18.1667 21.9548 18.2117 21.9165 18.2442 21.8684C18.2766 21.8203 18.2953 21.7642 18.298 21.7062C18.2994 21.6489 18.2827 21.5926 18.2502 21.5453C18.2177 21.498 18.1712 21.4621 18.1171 21.4428C17.968 21.3857 17.7998 21.3476 17.657 21.3C17.4982 21.2639 17.3422 21.2162 17.1904 21.1572C17.074 21.1091 16.9729 21.0301 16.8981 20.9288C16.8232 20.8275 16.7775 20.7077 16.7657 20.5823C16.754 20.4569 16.7767 20.3306 16.8314 20.2172C16.8861 20.1037 16.9707 20.0074 17.0762 19.9385C17.2003 19.8492 17.3425 19.7881 17.4927 19.7596C17.6429 19.7311 17.7976 19.7358 17.9458 19.7734C17.9635 19.7781 17.98 19.7868 17.9938 19.7989C18.0075 19.811 18.0183 19.8262 18.0251 19.8433C18.0822 19.9892 18.1298 20.1384 18.1806 20.2876Z" fill="white"></path>
    <path d="M17.3363 38.5744C17.4026 38.7026 17.4768 38.8266 17.5585 38.9457C17.6166 39.0263 17.6928 39.0921 17.781 39.1379C17.8692 39.1836 17.9669 39.208 18.0663 39.2091C18.1155 39.2152 18.1654 39.2075 18.2105 39.187C18.2557 39.1666 18.2943 39.134 18.3222 39.0931C18.35 39.0521 18.3661 39.0042 18.3686 38.9547C18.371 38.9052 18.3597 38.856 18.336 38.8124C18.2799 38.6982 18.2095 38.5916 18.1266 38.495C18.0092 38.3491 17.8727 38.2189 17.7616 38.0666C17.6591 37.9396 17.6047 37.7804 17.6082 37.6172C17.6117 37.454 17.6728 37.2973 17.7807 37.1748C17.8613 37.0804 17.9652 37.0087 18.0822 36.967C18.1991 36.9252 18.3249 36.9148 18.4471 36.9368C18.711 36.9636 18.9548 37.0895 19.1295 37.289C19.1415 37.3046 19.1499 37.3226 19.1543 37.3418C19.1587 37.361 19.1589 37.3809 19.1549 37.4001C19.12 37.5525 19.0755 37.7175 19.0279 37.8635C18.9708 37.781 18.9264 37.708 18.8724 37.6381C18.8188 37.564 18.7506 37.5015 18.6721 37.4546C18.5935 37.4076 18.5061 37.3772 18.4154 37.3652C18.3259 37.3569 18.2359 37.3733 18.1552 37.4128C18.1312 37.4272 18.1103 37.4461 18.0936 37.4686C18.077 37.491 18.0649 37.5165 18.0581 37.5437C18.0513 37.5708 18.05 37.599 18.0541 37.6266C18.0582 37.6543 18.0678 37.6808 18.0822 37.7048C18.1252 37.7846 18.1774 37.8592 18.2377 37.927C18.3646 38.0729 18.5106 38.2062 18.628 38.3586C18.7596 38.5121 18.8273 38.7101 18.8173 38.912C18.8072 39.1139 18.7202 39.3043 18.5741 39.444C18.4872 39.5256 18.3814 39.5844 18.2661 39.6148C18.1509 39.6453 18.0298 39.6466 17.914 39.6185C17.6329 39.5671 17.3814 39.4119 17.2094 39.1837C17.2001 39.1728 17.1931 39.1602 17.1887 39.1466C17.1844 39.133 17.1828 39.1186 17.184 39.1044C17.2316 38.933 17.2729 38.7553 17.3363 38.5744Z" fill="white"></path>
    <path d="M18.8604 19.3769L19.3301 19.3484L20.1806 21.0431L20.8153 19.2595L21.2851 19.231L20.3139 21.9952H20.1711L18.8604 19.3769Z" fill="white"></path>
    <path d="M20.021 39.9454C19.9543 39.9454 19.894 39.9454 19.8337 39.9454L19.5576 39.92L19.7861 37.2542L20.2495 37.2922L20.021 39.9454Z" fill="white"></path>
    <path d="M29.0567 31.9065C29.0567 31.7836 29.1055 31.6657 29.1924 31.5788C29.2793 31.4919 29.3971 31.4431 29.52 31.4431C29.6429 31.4448 29.7603 31.4946 29.8469 31.5818C29.9336 31.669 29.9825 31.7867 29.9834 31.9096C29.9825 32.0328 29.933 32.1507 29.8456 32.2375C29.7582 32.3243 29.64 32.373 29.5168 32.373C29.456 32.3726 29.3958 32.3602 29.3398 32.3365C29.2837 32.3128 29.2328 32.2784 29.1901 32.235C29.1474 32.1917 29.1136 32.1404 29.0907 32.084C29.0678 32.0277 29.0562 31.9673 29.0567 31.9065V31.9065Z" fill="white"></path>
    <path d="M11.3887 31.9065C11.3903 31.7835 11.4401 31.6662 11.5273 31.5795C11.6146 31.4929 11.7323 31.4439 11.8552 31.4431C11.9779 31.4456 12.0948 31.4956 12.1813 31.5827C12.2677 31.6697 12.3169 31.787 12.3186 31.9096C12.3161 32.0329 12.2656 32.1502 12.1779 32.2368C12.0902 32.3233 11.9721 32.3722 11.8489 32.373C11.788 32.3726 11.7278 32.3602 11.6718 32.3365C11.6157 32.3128 11.5649 32.2784 11.5221 32.235C11.4794 32.1917 11.4456 32.1404 11.4227 32.084C11.3998 32.0277 11.3883 31.9673 11.3887 31.9065V31.9065Z" fill="white"></path>
  </g>
  <defs>
    <clipPath id="clip0">
      <rect width="110" height="27.4111" fill="white" transform="translate(7 16)"></rect>
    </clipPath>
  </defs>
</svg>
